# xmcd
#
# Track frame offsets:
#	150
#	21831
#	36872
#	53144
#	69774
#	86004
#	109076
#	127258
#	143706
#	160624
#	176494
#	191880
#
# Disc length: 3075 seconds
#
# Revision: 1
# Processed by: cddbd v1.5.2PL0 Copyright (c) Steve Scherf et al.
# Submitted via: audiograbber 1.83.01
#
DISCID=a10c010c
DTITLE=Brandon Ryder - Every Night
DYEAR=2008
DGENRE=Country
TTITLE0=Have I Waited Too Long
TTITLE1=Fingers To The Bone
TTITLE2=Let's Don't Go Down That Road
TTITLE3=Again
TTITLE4=She Couldn't Lie Anymore
TTITLE5=Old Red Door
TTITLE6=This Ain't It
TTITLE7=Happy Ever After
TTITLE8=When You Wake Up
TTITLE9=It's What I Do
TTITLE10=Every Night
TTITLE11=Cowboy's Work
EXTD=
EXTT0=
EXTT1=
EXTT2=
EXTT3=
EXTT4=
EXTT5=
EXTT6=
EXTT7=
EXTT8=
EXTT9=
EXTT10=
EXTT11=
PLAYORDER=
